<svg width="64" height="64" viewBox="0 0 64 64" fill="none" xmlns="http://www.w3.org/2000/svg">
<path d="M59 32H57V21C57 18.6131 56.0518 16.3239 54.364 14.636C52.6761 12.9482 50.3869 12 48 12C45.6131 12 43.3239 12.9482 41.636 14.636C39.9482 16.3239 39 18.6131 39 21V25C39 25.2652 39.1054 25.5196 39.2929 25.7071C39.4804 25.8946 39.7348 26 40 26C40.2652 26 40.5196 25.8946 40.7071 25.7071C40.8946 25.5196 41 25.2652 41 25V21C41 19.1435 41.7375 17.363 43.0503 16.0503C44.363 14.7375 46.1435 14 48 14C49.8565 14 51.637 14.7375 52.9497 16.0503C54.2625 17.363 55 19.1435 55 21V32H53V21C53 19.6739 52.4732 18.4021 51.5355 17.4645C50.5979 16.5268 49.3261 16 48 16C46.6739 16 45.4021 16.5268 44.4645 17.4645C43.5268 18.4021 43 19.6739 43 21V25C43 25.2652 43.1054 25.5196 43.2929 25.7071C43.4804 25.8946 43.7348 26 44 26C44.2652 26 44.5196 25.8946 44.7071 25.7071C44.8946 25.5196 45 25.2652 45 25V21C45 20.2044 45.3161 19.4413 45.8787 18.8787C46.4413 18.3161 47.2044 18 48 18C48.7956 18 49.5587 18.3161 50.1213 18.8787C50.6839 19.4413 51 20.2044 51 21V32H30C29.7348 32 29.4804 32.1054 29.2929 32.2929C29.1054 32.4804 29 32.7348 29 33C29 33.2652 29.1054 33.5196 29.2929 33.7071C29.4804 33.8946 29.7348 34 30 34H59C59.2652 34 59.5196 34.1054 59.7071 34.2929C59.8946 34.4804 60 34.7348 60 35C60 35.2652 59.8946 35.5196 59.7071 35.7071C59.5196 35.8946 59.2652 36 59 36H30.17C29.9048 36 29.6504 36.1054 29.4629 36.2929C29.2754 36.4804 29.17 36.7348 29.17 37C29.17 37.2652 29.2754 37.5196 29.4629 37.7071C29.6504 37.8946 29.9048 38 30.17 38H55V49C55 50.8565 54.2625 52.637 52.9497 53.9497C51.637 55.2625 49.8565 56 48 56H16C14.1435 56 12.363 55.2625 11.0503 53.9497C9.7375 52.637 9 50.8565 9 49V38H10C10.2652 38 10.5196 37.8946 10.7071 37.7071C10.8946 37.5196 11 37.2652 11 37C11 36.7348 10.8946 36.4804 10.7071 36.2929C10.5196 36.1054 10.2652 36 10 36H5C4.73478 36 4.48043 35.8946 4.29289 35.7071C4.10536 35.5196 4 35.2652 4 35C4 34.7348 4.10536 34.4804 4.29289 34.2929C4.48043 34.1054 4.73478 34 5 34H13V48C13 48.2652 13.1054 48.5196 13.2929 48.7071C13.4804 48.8946 13.7348 49 14 49H26C26.2652 49 26.5196 48.8946 26.7071 48.7071C26.8946 48.5196 27 48.2652 27 48V33C27 32.7348 26.8946 32.4804 26.7071 32.2929C26.5196 32.1054 26.2652 32 26 32H5C4.20435 32 3.44129 32.3161 2.87868 32.8787C2.31607 33.4413 2 34.2044 2 35C2 35.7956 2.31607 36.5587 2.87868 37.1213C3.44129 37.6839 4.20435 38 5 38H7V49C7.00105 51.2131 7.81745 53.3482 9.29322 54.9973C10.769 56.6465 12.8006 57.6941 15 57.94V59C15 59.7956 15.3161 60.5587 15.8787 61.1213C16.4413 61.6839 17.2044 62 18 62C18.7956 62 19.5587 61.6839 20.1213 61.1213C20.6839 60.5587 21 59.7956 21 59V58H43V59C43 59.7956 43.3161 60.5587 43.8787 61.1213C44.4413 61.6839 45.2044 62 46 62C46.7956 62 47.5587 61.6839 48.1213 61.1213C48.6839 60.5587 49 59.7956 49 59V57.94C51.1994 57.6941 53.231 56.6465 54.7068 54.9973C56.1825 53.3482 56.9989 51.2131 57 49V38H59C59.7956 38 60.5587 37.6839 61.1213 37.1213C61.6839 36.5587 62 35.7956 62 35C62 34.2044 61.6839 33.4413 61.1213 32.8787C60.5587 32.3161 59.7956 32 59 32V32ZM25 47H15V44H25V47ZM25 42H15V34H25V42ZM19 59C19 59.2652 18.8946 59.5196 18.7071 59.7071C18.5196 59.8946 18.2652 60 18 60C17.7348 60 17.4804 59.8946 17.2929 59.7071C17.1054 59.5196 17 59.2652 17 59V58H19V59ZM47 59C47 59.2652 46.8946 59.5196 46.7071 59.7071C46.5196 59.8946 46.2652 60 46 60C45.7348 60 45.4804 59.8946 45.2929 59.7071C45.1054 59.5196 45 59.2652 45 59V58H47V59Z" fill="#ffffff" id="id_104"></path>
<path d="M6 24H32C32.2652 24 32.5196 23.8946 32.7071 23.7071C32.8946 23.5196 33 23.2652 33 23V3C33 2.73478 32.8946 2.48043 32.7071 2.29289C32.5196 2.10536 32.2652 2 32 2H6C5.73478 2 5.48043 2.10536 5.29289 2.29289C5.10536 2.48043 5 2.73478 5 3V23C5 23.2652 5.10536 23.5196 5.29289 23.7071C5.48043 23.8946 5.73478 24 6 24ZM7 4H17.59L27.29 13.71C27.383 13.8037 27.4936 13.8781 27.6154 13.9289C27.7373 13.9797 27.868 14.0058 28 14.0058C28.132 14.0058 28.2627 13.9797 28.3846 13.9289C28.5064 13.8781 28.617 13.8037 28.71 13.71C28.8037 13.617 28.8781 13.5064 28.9289 13.3846C28.9797 13.2627 29.0058 13.132 29.0058 13C29.0058 12.868 28.9797 12.7373 28.9289 12.6154C28.8781 12.4936 28.8037 12.383 28.71 12.29L20.41 4H24.59L27.79 7.21C27.883 7.30373 27.9936 7.37812 28.1154 7.42889C28.2373 7.47966 28.368 7.5058 28.5 7.5058C28.632 7.5058 28.7627 7.47966 28.8846 7.42889C29.0064 7.37812 29.117 7.30373 29.21 7.21C29.3037 7.11704 29.3781 7.00644 29.4289 6.88458C29.4797 6.76272 29.5058 6.63201 29.5058 6.5C29.5058 6.36799 29.4797 6.23728 29.4289 6.11542C29.3781 5.99356 29.3037 5.88296 29.21 5.79L27.41 4H31V22H13V7C13 6.73478 12.8946 6.48043 12.7071 6.29289C12.5196 6.10536 12.2652 6 12 6C11.7348 6 11.4804 6.10536 11.2929 6.29289C11.1054 6.48043 11 6.73478 11 7V22H7V4Z" fill="#ffffff" id="id_105"></path>
<path d="M16 17C16.2652 17 16.5196 16.8946 16.7071 16.7071C16.8946 16.5196 17 16.2652 17 16V10C17 9.73478 16.8946 9.48043 16.7071 9.29289C16.5196 9.10536 16.2652 9 16 9C15.7348 9 15.4804 9.10536 15.2929 9.29289C15.1054 9.48043 15 9.73478 15 10V16C15 16.2652 15.1054 16.5196 15.2929 16.7071C15.4804 16.8946 15.7348 17 16 17Z" fill="#ffffff" id="id_106"></path>
</svg>