<svg xmlns="http://www.w3.org/2000/svg" viewBox="0 0 64 64"><defs><style>.cls-1{fill:#9b9892;}.cls-2{fill:#7e2706;}</style></defs><g id="Layer_35" data-name="Layer 35"><path class="cls-1" d="M60.67,44.84a4.48,4.48,0,0,0-5.85-2.46L42.09,46.86a4.29,4.29,0,0,0-4.21-5h-7.2a2.24,2.24,0,0,1-1.07-.27l-6.9-3.65a4.32,4.32,0,0,0-2-.49h-9.9a1,1,0,0,0,0,2h9.9a2.35,2.35,0,0,1,1.07.26l6.9,3.65a4.21,4.21,0,0,0,2,.5h7.2a2.3,2.3,0,0,1,1.52,4l-1.69.59H26.78a1,1,0,0,0,0,2h11.1a4.21,4.21,0,0,0,2.49-.81l15.18-5.35a2.48,2.48,0,0,1,2.18,4.45L35.3,58.27A6.7,6.7,0,0,1,29,58.15L20.7,55.67C17.79,54,14.07,54,10.81,54.07a1,1,0,0,0,0,2c2.95,0,6.42-.15,9,1.42l.19.07L28.35,60a8.46,8.46,0,0,0,7.8,0l22.43-9.59A4.45,4.45,0,0,0,60.67,44.84Z" id="id_106" style="fill: rgb(255, 255, 255);"></path><path class="cls-1" d="M37.59,10.77a14.92,14.92,0,0,0-9.78,6.17,1,1,0,1,0,1.64,1.14,13,13,0,0,1,8.46-5.34A1,1,0,0,0,37.59,10.77Z" id="id_107" style="fill: rgb(255, 255, 255);"></path><path class="cls-1" d="M41,6.62V4.16a1,1,0,1,0-2,0V6.62A18.88,18.88,0,0,0,21.13,25.44a1,1,0,0,0,2,0,16.87,16.87,0,0,1,33.74,0,1,1,0,1,0,2,0A18.88,18.88,0,0,0,41,6.62Z" id="id_108" style="fill: rgb(255, 255, 255);"></path><path class="cls-2" d="M10.81,59.36H4a1,1,0,0,1-1-1V33.86a1,1,0,0,1,1-1h6.81a1,1,0,0,1,1,1v24.5A1,1,0,0,1,10.81,59.36ZM5,57.36H9.81V34.86H5Z" id="id_109" style="fill: rgb(255, 255, 255);"></path><path class="cls-2" d="M54.32,32.12H25.68A6.69,6.69,0,0,1,19,25.44a1,1,0,0,1,1-1H60a1,1,0,0,1,1,1A6.69,6.69,0,0,1,54.32,32.12ZM21.11,26.44a4.69,4.69,0,0,0,4.57,3.68H54.32a4.69,4.69,0,0,0,4.57-3.68Z" id="id_110" style="fill: rgb(255, 255, 255);"></path></g></svg>