<svg height="534pt" viewBox="-16 -45 534.66835 534" width="534pt" xmlns="http://www.w3.org/2000/svg"><path d="m490.015625 112.902344c6.203125 0 11.234375-5.027344 11.234375-11.234375 0-6.203125-5.03125-11.234375-11.234375-11.234375h-94.582031v-42.125c-.035156-27.566406-22.367188-49.902344-49.933594-49.933594h-234.222656c-22.917969.03125-41.488282 18.597656-41.515625 41.519531v50.539063h-58.527344c-6.203125 0-11.234375 5.03125-11.234375 11.234375 0 6.207031 5.03125 11.234375 11.234375 11.234375h58.527344v14.980468h-58.527344c-6.203125 0-11.234375 5.03125-11.234375 11.234376 0 6.207031 5.03125 11.234374 11.234375 11.234374h58.527344v220.675782c-.195313 1.140625-.195313 2.3125 0 3.453125v55.789062c0 6.203125 5.027343 11.238281 11.234375 11.238281h264.359375c6.203125 0 11.234375-5.035156 11.234375-11.238281v-30.816406c.195312-1.140625.195312-2.3125 0-3.453125v-6.886719h27.609375c6.203125 0 11.234375-5.03125 11.234375-11.234375v-225.949218c-.003906-.527344-.046875-1.054688-.125-1.570313h94.703125c6.207031 0 11.234375-5.035156 11.234375-11.238281 0-6.207032-5.027344-11.234375-11.234375-11.234375h-133.421875v-14.980469zm-117.050781-64.59375v42.125h-16.375v-50.539063c.003906-6.300781-1.429688-12.515625-4.199219-18.171875 12.101563 3.15625 20.558594 14.078125 20.574219 26.585938zm-280.734375 299.476562h241.886719v35.519532c-2.636719-1.859376-5.105469-3.949219-7.375-6.238282-6.953126-6.566406-16.476563-15.546875-34.175782-15.546875-17.699218 0-27.222656 8.988281-34.175781 15.546875-6.019531 5.667969-9.988281 9.417969-18.761719 9.417969-8.765625 0-12.738281-3.742187-18.753906-9.417969-6.953125-6.566406-16.476562-15.546875-34.167969-15.546875-17.695312 0-27.214843 8.988281-34.175781 15.546875-6.015625 5.667969-9.984375 9.417969-18.757812 9.417969-8.769532 0-12.730469-3.742187-18.75-9.417969-5.289063-4.996094-12.074219-11.367187-22.792969-14.148437zm19.046875-326.9375h203.792968c10.515626.007813 19.035157 8.527344 19.046876 19.046875v285.421875h-241.886719v-285.421875c.011719-10.519531 8.535156-19.039062 19.046875-19.046875zm-19.046875 398.1875v-31.863281c2.632812 1.863281 5.101562 3.953125 7.371093 6.242187 6.957032 6.566407 16.480469 15.546876 34.171876 15.546876 17.695312 0 27.226562-8.988282 34.171874-15.546876 6.019532-5.671874 9.988282-9.421874 18.761719-9.421874 8.765625 0 12.738281 3.746093 18.75 9.421874 6.953125 6.566407 16.476563 15.546876 34.171875 15.546876 17.695313 0 27.226563-8.988282 34.179688-15.546876 6.011718-5.671874 9.984375-9.421874 18.757812-9.421874 8.773438 0 12.742188 3.746093 18.753906 9.421874 5.289063 4.996094 12.074219 11.367188 22.796876 14.148438v11.484375zm280.855469-268.683594c-.078126.523438-.117188 1.042969-.121094 1.570313v214.71875h-16.375v-28.359375c.195312-1.140625.195312-2.308594 0-3.449219v-184.480469zm0 0" id="id_113" style="fill: rgb(255, 255, 255);"></path><path d="m269.058594 300.535156h21.847656c15.5625-.035156 28.164062-12.664062 28.164062-28.230468v-216.066407c0-6.207031-5.03125-11.234375-11.234374-11.234375-6.207032 0-11.234376 5.027344-11.234376 11.234375v216.066407c.007813 3.164062-2.535156 5.742187-5.695312 5.761718h-21.847656c-6.207032 0-11.234375 5.027344-11.234375 11.234375 0 6.203125 5.027343 11.234375 11.234375 11.234375zm0 0" id="id_114" style="fill: rgb(255, 255, 255);"></path></svg>