<svg height="588pt" viewBox="-18 -95 588.00104 588" width="588pt" xmlns="http://www.w3.org/2000/svg"><path d="m502.535156 192.214844h-9.625v-111.160156c-.054687-47.566407-38.601562-86.113282-86.167968-86.167969h-262.246094c-47.566406.054687-86.113282 38.601562-86.167969 86.167969v111.160156h-9.625c-26.882813.03125-48.6757812 21.820312-48.703125 48.703125v65.894531c.0273438 26.882812 21.820312 48.667969 48.703125 48.703125h20.511719v13.835937c.015625 13.164063 10.6875 23.832032 23.855468 23.847657h37.6875c13.164063-.015625 23.839844-10.683594 23.855469-23.847657v-13.835937h242.015625v13.835937c.015625 13.164063 10.683594 23.832032 23.851563 23.847657h37.699219c13.167968-.015625 23.839843-10.683594 23.851562-23.847657v-13.835937h20.515625c26.882813-.035156 48.675781-21.820313 48.703125-48.703125v-65.894531c-.027344-26.886719-21.824219-48.675781-48.714844-48.703125zm-421.730468-111.160156c.039062-35.15625 28.535156-63.644532 63.691406-63.691407h262.246094c35.15625.046875 63.648437 28.535157 63.6875 63.691407v111.160156h-20.636719v-38.941406c-.019531-15.726563-12.761719-28.46875-28.488281-28.488282h-107.808594c-15.722656.019532-28.46875 12.765625-28.484375 28.488282v38.941406h-18.785157v-38.941406c-.019531-15.722657-12.761718-28.46875-28.488281-28.488282h-107.800781c-15.726562.019532-28.472656 12.761719-28.492188 28.488282v38.941406h-20.640624zm346.507812 111.160156h-119.820312v-38.941406c0-3.316407 2.6875-6.003907 6.003906-6.007813h107.808594c3.316406.003906 6.003906 2.691406 6.007812 6.007813zm-183.5625 0h-119.828125v-38.941406c.007813-3.316407 2.695313-6.003907 6.015625-6.007813h107.800781c3.320313.003906 6.007813 2.691406 6.011719 6.007813zm-195.046875 22.480468h453.832031c14.476563.019532 26.207032 11.75 26.222656 26.222657v49.285156h-506.28125v-49.285156c.015626-14.472657 11.75-26.203125 26.226563-26.222657zm83.429687 154.648438c0 .757812-.609374 1.371094-1.367187 1.371094h-37.699219c-.757812 0-1.367187-.613282-1.367187-1.371094v-13.828125h40.433593zm327.410157 0c0 .757812-.613281 1.371094-1.371094 1.371094h-37.691406c-.757813 0-1.367188-.613282-1.367188-1.371094v-13.828125h40.433594zm42.992187-36.304688h-453.832031c-12.210937-.027343-22.796875-8.460937-25.535156-20.359374h504.902343c-2.742187 11.898437-13.320312 20.332031-25.535156 20.359374zm0 0" id="id_108" style="fill:#aa8453;"></path></svg>