<svg height="505pt" fill="#aa8453" viewBox="-53 -16 505 505.33334" width="505pt" xmlns="http://www.w3.org/2000/svg"><path d="m100.160156 322.5c6.210938 0 11.25-5.039062 11.25-11.25v-46.875h160v46.875c0 6.210938 5.039063 11.25 11.25 11.25 6.210938 0 11.25-5.039062 11.25-11.25v-256.25c0-17.949219 14.550782-32.5 32.5-32.5 17.949219 0 32.5 14.550781 32.5 32.5v17.085938c0 6.210937 5.039063 11.25 11.25 11.25 6.210938 0 11.25-5.039063 11.25-11.25v-17.085938c0-30.375-24.621094-55-55-55-30.375 0-55 24.625-55 55v103.125h-160v-103.125c0-17.949219 14.550782-32.5 32.5-32.5 17.949219 0 32.5 14.550781 32.5 32.5v17.085938c0 6.210937 5.039063 11.25 11.25 11.25 6.210938 0 11.25-5.039063 11.25-11.25v-17.085938c0-30.375-24.621094-55-55-55-30.375 0-55 24.625-55 55v256.25c0 6.210938 5.039063 11.25 11.25 11.25zm171.25-141.875v61.25h-160v-61.25zm0 0" id="id_104"></path><path d="m8.910156 386.25c11.804688 0 17.109375 4.21875 24.460938 10.058594 8.371094 6.65625 18.796875 14.941406 38.449218 14.941406 19.660157 0 30.085938-8.285156 38.457032-14.941406 7.351562-5.839844 12.65625-10.058594 24.460937-10.058594 11.800781 0 17.109375 4.21875 24.457031 10.058594 8.375 6.65625 18.804688 14.941406 38.457032 14.941406 19.65625 0 30.082031-8.285156 38.457031-14.941406 7.347656-5.839844 12.65625-10.058594 24.457031-10.058594 11.800782 0 17.113282 4.21875 24.464844 10.058594 8.371094 6.65625 18.800781 14.941406 38.457031 14.941406s30.085938-8.285156 38.460938-14.941406c7.347656-5.839844 12.65625-10.058594 24.460937-10.058594 6.210938 0 11.25-5.039062 11.25-11.25s-5.039062-11.25-11.25-11.25c-19.65625 0-30.082031 8.285156-38.460937 14.941406-7.34375 5.839844-12.65625 10.058594-24.460938 10.058594-11.804687 0-17.109375-4.21875-24.460937-10.058594-8.371094-6.65625-18.800782-14.941406-38.460938-14.941406-19.65625 0-30.078125 8.285156-38.457031 14.941406-7.34375 5.839844-12.65625 10.058594-24.457031 10.058594-11.800782 0-17.109375-4.21875-24.457032-10.058594-8.375-6.65625-18.804687-14.941406-38.457031-14.941406-19.65625 0-30.074219 8.285156-38.453125 14.941406-7.34375 5.839844-12.65625 10.058594-24.457031 10.058594-11.796875 0-17.109375-4.21875-24.453125-10.058594-8.375-6.65625-18.804688-14.941406-38.457031-14.941406-6.210938 0-11.25 5.039062-11.25 11.25s5.039062 11.25 11.25 11.25zm0 0" id="id_105"></path><path d="m8.910156 448.75c11.804688 0 17.109375 4.21875 24.460938 10.058594 8.371094 6.65625 18.796875 14.941406 38.449218 14.941406 19.660157 0 30.085938-8.285156 38.457032-14.941406 7.351562-5.839844 12.65625-10.058594 24.460937-10.058594 11.800781 0 17.109375 4.21875 24.457031 10.058594 8.375 6.65625 18.804688 14.941406 38.457032 14.941406 19.65625 0 30.082031-8.285156 38.457031-14.941406 7.347656-5.839844 12.65625-10.058594 24.457031-10.058594 11.800782 0 17.113282 4.21875 24.464844 10.058594 8.371094 6.65625 18.800781 14.941406 38.457031 14.941406s30.085938-8.285156 38.460938-14.941406c7.347656-5.839844 12.65625-10.058594 24.460937-10.058594 6.210938 0 11.25-5.039062 11.25-11.25s-5.039062-11.25-11.25-11.25c-19.65625 0-30.082031 8.285156-38.460937 14.941406-7.34375 5.839844-12.65625 10.058594-24.460938 10.058594-11.804687 0-17.109375-4.21875-24.460937-10.058594-8.371094-6.65625-18.800782-14.941406-38.460938-14.941406-19.65625 0-30.078125 8.285156-38.457031 14.941406-7.34375 5.839844-12.65625 10.058594-24.457031 10.058594-11.800782 0-17.109375-4.21875-24.457032-10.058594-8.375-6.65625-18.804687-14.941406-38.457031-14.941406-19.65625 0-30.074219 8.285156-38.453125 14.941406-7.34375 5.839844-12.65625 10.058594-24.457031 10.058594-11.796875 0-17.109375-4.21875-24.453125-10.058594-8.375-6.65625-18.804688-14.941406-38.457031-14.941406-6.210938 0-11.25 5.039062-11.25 11.25s5.039062 11.25 11.25 11.25zm0 0" id="id_106"></path></svg>