<svg width="512" height="512" viewBox="0 0 512 512" fill="none" xmlns="http://www.w3.org/2000/svg">
<path d="M35.881 90.5668C36.3168 90.6403 36.7581 90.6771 37.2 90.6768C39.0932 90.6743 40.9242 90.0005 42.3674 88.7752C43.8106 87.5499 44.7725 85.8525 45.082 83.9848C45.9782 78.1628 47.8208 72.5267 50.537 67.2998C51.4798 65.4355 51.6559 63.2764 51.0278 61.284C50.3997 59.2916 49.0171 57.624 47.1755 56.6375C45.334 55.6511 43.1797 55.4241 41.173 56.0051C39.1664 56.5861 37.4666 57.929 36.437 59.7468C32.8926 66.5147 30.4816 73.8178 29.3 81.3658C28.9529 83.4586 29.4511 85.6035 30.6853 87.329C31.9194 89.0545 33.7883 90.2191 35.881 90.5668V90.5668Z" fill="#aa8453" id="id_108"></path>
<path d="M476.266 417.994C475.223 417.866 474.165 417.946 473.153 418.227C472.14 418.509 471.193 418.987 470.366 419.634C469.539 420.282 468.847 421.086 468.33 422.001C467.813 422.916 467.482 423.924 467.355 424.967C466.703 430.874 465.152 436.648 462.755 442.087C462.303 443.045 462.047 444.083 462 445.141C461.953 446.199 462.116 447.256 462.481 448.25C462.845 449.245 463.404 450.157 464.123 450.934C464.843 451.711 465.71 452.337 466.674 452.776C467.638 453.215 468.679 453.459 469.738 453.493C470.796 453.526 471.851 453.349 472.841 452.972C473.83 452.595 474.735 452.025 475.503 451.295C476.271 450.566 476.886 449.691 477.313 448.722C480.391 441.794 482.389 434.436 483.238 426.904C483.495 424.797 482.905 422.676 481.597 421.005C480.29 419.334 478.372 418.251 476.266 417.994V417.994Z" fill="#aa8453" id="id_109"></path>
<path d="M438.2 464.323C432.508 466.277 426.572 467.435 420.562 467.764C418.491 467.899 416.553 468.834 415.158 470.371C413.764 471.909 413.021 473.928 413.088 476.003C413.154 478.078 414.025 480.046 415.515 481.491C417.006 482.935 418.999 483.744 421.075 483.747C421.25 483.747 421.427 483.741 421.603 483.73C429.091 483.305 436.484 481.847 443.571 479.396C445.57 478.683 447.204 477.206 448.114 475.289C449.024 473.372 449.135 471.172 448.422 469.174C447.71 467.175 446.233 465.541 444.316 464.631C442.399 463.721 440.199 463.61 438.2 464.323V464.323Z" fill="#aa8453" id="id_110"></path>
<path d="M74.3611 47.0832C75.1287 47.0829 75.8921 46.9721 76.6281 46.7542C82.468 45.1012 88.496 44.2048 94.5641 44.0872C95.6143 44.0567 96.6482 43.8197 97.6068 43.3897C98.5654 42.9597 99.4299 42.345 100.151 41.5809C100.872 40.8168 101.435 39.9181 101.809 38.9362C102.183 37.9543 102.36 36.9084 102.329 35.8582C102.299 34.808 102.062 33.7741 101.632 32.8155C101.202 31.857 100.587 30.9925 99.8228 30.2714C99.0587 29.5504 98.16 28.9869 97.1781 28.6132C96.1962 28.2394 95.1503 28.0627 94.1001 28.0932C86.655 28.2503 79.261 29.3645 72.1001 31.4082C70.2539 31.9512 68.6652 33.1414 67.6254 34.7608C66.5856 36.3802 66.1644 38.3201 66.4391 40.2248C66.7137 42.1296 67.6657 43.8715 69.1206 45.1312C70.5755 46.3909 72.4357 47.0839 74.3601 47.0832H74.3611Z" fill="#aa8453" id="id_111"></path>
<path d="M202.546 375.876C207.69 380.392 212.938 384.862 218.146 389.162C219.784 390.493 221.881 391.124 223.982 390.916C226.082 390.707 228.016 389.678 229.36 388.05C230.705 386.423 231.351 384.33 231.16 382.228C230.968 380.126 229.954 378.185 228.337 376.828C223.255 372.628 218.13 368.263 213.104 363.851C212.314 363.158 211.396 362.627 210.401 362.289C209.407 361.951 208.355 361.812 207.307 361.88C206.258 361.948 205.234 362.222 204.291 362.687C203.349 363.151 202.507 363.796 201.814 364.586C201.121 365.375 200.59 366.294 200.252 367.289C199.914 368.283 199.775 369.335 199.843 370.383C199.912 371.431 200.186 372.456 200.65 373.399C201.114 374.341 201.759 375.183 202.549 375.876H202.546Z" fill="#aa8453" id="id_112"></path>
<path d="M51.1391 183.636C53.9621 189.684 57.0731 195.902 60.3861 202.122C61.3934 203.976 63.0928 205.358 65.114 205.965C67.1352 206.572 69.3145 206.356 71.1772 205.364C73.0399 204.372 74.435 202.684 75.0587 200.668C75.6824 198.652 75.4842 196.471 74.5071 194.6C71.3261 188.628 68.3421 182.662 65.6371 176.869C65.1927 175.917 64.5651 175.062 63.7902 174.352C63.0153 173.642 62.1082 173.092 61.1208 172.733C60.1333 172.374 59.0848 172.213 58.0352 172.26C56.9855 172.306 55.9552 172.558 55.0031 173.003C54.051 173.447 53.1958 174.075 52.4862 174.85C51.7767 175.625 51.2267 176.532 50.8677 177.519C50.5087 178.507 50.3478 179.555 50.394 180.605C50.4402 181.654 50.6927 182.685 51.1371 183.637L51.1391 183.636Z" fill="#aa8453" id="id_113"></path>
<path d="M477.92 373.91C477.578 372.665 476.944 371.52 476.07 370.57C500.327 323.86 509.106 270.649 501.14 218.623C493.174 166.596 468.874 118.45 431.752 81.1386C394.63 43.8273 346.608 19.2834 294.623 11.0527C242.638 2.8221 189.382 11.3309 142.55 35.3499C140.48 34.7499 138.43 34.1699 136.42 33.6399C135.004 33.2652 133.512 33.2873 132.107 33.7039C130.703 34.1204 129.44 34.9153 128.457 36.0015C127.474 37.0877 126.809 38.4233 126.534 39.8623C126.26 41.3012 126.386 42.788 126.9 44.1599C94.6472 63.9407 67.2821 90.7554 46.8501 122.6C46.7601 122.2 46.6701 121.78 46.5901 121.38C46.1644 119.315 44.9406 117.501 43.185 116.334C41.4294 115.166 39.2838 114.739 37.2148 115.145C35.1458 115.551 33.3207 116.757 32.1363 118.501C30.952 120.246 30.5041 122.387 30.8901 124.46C32.0301 130.26 33.5401 136.34 35.3601 142.54C11.3874 189.276 2.86034 242.412 11.0061 294.302C19.1519 346.192 43.5505 394.16 80.6905 431.302C117.831 468.444 165.797 492.846 217.686 500.995C269.576 509.144 322.713 500.62 369.45 476.65C372.71 477.61 375.93 478.48 379.08 479.25C379.703 479.399 380.34 479.476 380.98 479.48C382.482 479.479 383.954 479.054 385.226 478.256C386.499 477.457 387.521 476.316 388.175 474.964C388.829 473.612 389.089 472.102 388.926 470.609C388.762 469.116 388.182 467.699 387.25 466.52C418.67 446.799 445.335 420.366 465.33 389.12C465.978 390.491 467 391.651 468.28 392.465C469.56 393.279 471.044 393.714 472.56 393.72C473.132 393.72 473.702 393.657 474.26 393.53C475.287 393.308 476.26 392.886 477.124 392.288C477.988 391.69 478.726 390.928 479.295 390.045C479.864 389.161 480.254 388.175 480.442 387.141C480.63 386.107 480.612 385.047 480.39 384.02C479.67 380.73 478.84 377.33 477.92 373.91ZM91.9501 91.9499C107.708 76.1672 125.651 62.73 145.23 52.0499C146.988 51.7664 148.602 50.9083 149.82 49.6099C163.326 42.6432 177.493 37.0389 192.11 32.8799C177.37 45.1299 163.84 61.7399 152.08 82.3299C142.066 100.114 133.99 118.922 127.99 138.43C105.74 136.12 83.5201 133.203 61.3301 129.68C70.1997 116.075 80.4617 103.43 91.9501 91.9499V91.9499ZM52.4701 144.46C76.1001 148.33 99.7801 151.523 123.51 154.04C115.626 184.754 111.407 216.293 110.94 248H107.13C106.896 247.068 106.493 246.186 105.94 245.4C102.08 239.9 98.3301 234.34 94.7701 228.86C93.5877 227.147 91.784 225.962 89.7421 225.557C87.7001 225.152 85.5807 225.559 83.834 226.691C82.0872 227.823 80.8506 229.592 80.3869 231.621C79.9231 233.651 80.2686 235.781 81.3501 237.56C83.5901 241.02 85.9201 244.51 88.2901 248H24.1501C25.3051 211.738 35.0085 176.262 52.4701 144.46V144.46ZM48.3301 359.68C33.4618 329.904 25.213 297.264 24.1501 264H110.94C111.383 292.831 114.896 321.533 121.42 349.62C97.2301 352.23 73.0801 355.537 48.9701 359.54C48.7537 359.571 48.5398 359.618 48.3301 359.68V359.68ZM91.9501 420.05C78.2872 406.403 66.3665 391.116 56.4601 374.54C79.4301 370.8 102.447 367.71 125.51 365.27C131.75 387.725 140.671 409.347 152.08 429.67C163.84 450.26 177.37 466.87 192.11 479.12C154.226 468.307 119.744 447.971 91.9501 420.05V420.05ZM248 404.42C247.511 405.476 247.258 406.626 247.258 407.79C247.258 408.954 247.511 410.104 248 411.16V487.54C217.32 484.11 188.44 461.06 165.97 421.74C155.666 403.38 147.519 383.891 141.69 363.66C177.07 360.38 212.507 358.63 248 358.41V404.42ZM248 342.41C227.29 342.54 206.587 343.183 185.89 344.34C186.254 342.975 186.25 341.539 185.88 340.176C185.509 338.813 184.785 337.573 183.78 336.58C182.37 335.21 180.97 333.823 179.58 332.42C176.26 329.11 172.94 325.71 169.7 322.34C168.972 321.582 168.102 320.975 167.139 320.554C166.176 320.133 165.14 319.905 164.089 319.884C163.038 319.863 161.994 320.049 161.015 320.432C160.037 320.815 159.143 321.387 158.385 322.115C157.627 322.843 157.02 323.713 156.599 324.676C156.178 325.639 155.95 326.675 155.929 327.726C155.908 328.776 156.095 329.821 156.477 330.8C156.86 331.778 157.432 332.672 158.16 333.43C161.48 336.88 164.88 340.35 168.26 343.74C168.8 344.27 169.34 344.81 169.88 345.34C159.08 346.08 148.28 346.96 137.48 347.98C133.795 332.718 131.086 317.236 129.37 301.63C129.79 302.13 130.2 302.62 130.62 303.11C131.303 303.908 132.136 304.564 133.073 305.041C134.009 305.517 135.03 305.804 136.078 305.886C137.125 305.968 138.179 305.842 139.178 305.517C140.177 305.192 141.102 304.673 141.9 303.99C142.699 303.307 143.355 302.474 143.831 301.537C144.307 300.601 144.595 299.58 144.676 298.532C144.758 297.485 144.633 296.431 144.307 295.432C143.982 294.433 143.463 293.508 142.78 292.71C138.43 287.63 134.13 282.46 129.99 277.32C129.262 276.414 128.344 275.68 127.3 275.17C127.13 271.46 127.01 267.737 126.94 264H248V342.41ZM248 248H126.94C127.4 216.816 131.655 185.805 139.61 155.65C175.69 159.01 211.82 160.8 248 161.02V248ZM248 145.02C213.4 144.8 178.823 143.127 144.27 140C149.791 122.724 157.062 106.058 165.97 90.2599C188.44 50.9399 217.32 27.8899 248 24.4599V145.02ZM487.85 248H401.06C400.594 216.293 396.374 184.754 388.49 154.04C412.21 151.52 435.89 148.327 459.53 144.46C476.992 176.262 486.695 211.738 487.85 248ZM420.05 91.9499C431.538 103.43 441.8 116.075 450.67 129.68C428.49 133.2 406.27 136.117 384.01 138.43C378.01 118.922 369.934 100.114 359.92 82.3299C348.16 61.7399 334.63 45.1299 319.89 32.8799C357.774 43.6924 392.256 64.0287 420.05 91.9499V91.9499ZM264 24.4599C294.68 27.8899 323.56 50.9399 346.03 90.2599C354.938 106.058 362.209 122.724 367.73 140C333.197 143.13 298.62 144.803 264 145.02V24.4599ZM264 161.02C300.16 160.79 336.29 159 372.39 155.65C380.345 185.805 384.6 216.816 385.06 248H264V161.02ZM264 264H385.06C384.612 292.293 381.078 320.453 374.52 347.98C337.73 344.5 300.89 342.643 264 342.41V264ZM264 487.54V423.71C265.14 424.48 266.28 425.26 267.41 426.02C269.172 427.201 271.332 427.634 273.414 427.224C275.495 426.813 277.329 425.592 278.51 423.83C279.692 422.068 280.125 419.908 279.714 417.826C279.303 415.745 278.082 413.911 276.32 412.73C272.24 410 268.12 407.14 264 404.22V358.41C299.47 358.64 334.907 360.39 370.31 363.66C364.481 383.891 356.334 403.38 346.03 421.74C341.416 429.859 336.23 437.638 330.51 445.02C329.785 444.107 328.866 443.365 327.82 442.85C322.06 440 316.15 436.88 310.25 433.6C309.331 433.057 308.313 432.704 307.255 432.561C306.198 432.418 305.122 432.488 304.092 432.767C303.062 433.046 302.098 433.528 301.258 434.185C300.417 434.842 299.716 435.661 299.196 436.593C298.676 437.525 298.348 438.551 298.231 439.612C298.114 440.673 298.211 441.746 298.515 442.769C298.819 443.792 299.325 444.744 300.002 445.568C300.68 446.393 301.516 447.073 302.46 447.57C308.42 450.89 314.39 454.04 320.23 456.94C303.09 474.81 283.93 485.31 264 487.54V487.54ZM420.05 420.05C404.569 435.553 386.979 448.797 367.8 459.39C366.59 458.99 365.38 458.6 364.16 458.18C362.154 457.492 359.956 457.63 358.051 458.562C356.146 459.493 354.689 461.144 354 463.15C353.616 464.253 353.482 465.428 353.61 466.59C342.717 471.646 331.442 475.836 319.89 479.12C334.63 466.87 348.16 450.26 359.92 429.67C371.329 409.347 380.25 387.725 386.49 365.27C409.55 367.71 432.567 370.8 455.54 374.54C445.634 391.116 433.713 406.403 420.05 420.05ZM463.67 359.68C463.46 359.618 463.247 359.571 463.03 359.54C438.93 355.52 414.78 352.213 390.58 349.62C397.104 321.533 400.617 292.831 401.06 264H487.85C486.787 297.264 478.538 329.904 463.67 359.68V359.68Z" fill="#aa8453" id="id_114"></path>
</svg>